<?xml version="1.0" standalone="no"?>
<!DOCTYPE svg PUBLIC "-//W3C//DTD SVG 20010904//EN"
 "http://www.w3.org/TR/2001/REC-SVG-20010904/DTD/svg10.dtd">
<svg version="1.0" xmlns="http://www.w3.org/2000/svg"
 width="392.000000pt" height="392.000000pt" viewBox="0 0 392.000000 392.000000"
 preserveAspectRatio="xMidYMid meet">
<metadata>
Created by potrace 1.14, written by Peter Selinger 2001-2017
</metadata>
<g transform="translate(0.000000,392.000000) scale(0.100000,-0.100000)"
fill="#000000" stroke="none">
<path d="M1710 3906 c-362 -55 -653 -176 -932 -388 -92 -69 -264 -236 -324
-313 -21 -27 -42 -52 -45 -55 -4 -3 -37 -50 -73 -105 -294 -441 -395 -992
-280 -1514 151 -681 659 -1234 1324 -1442 221 -69 370 -90 620 -84 107 2 213
7 235 10 325 48 645 182 913 382 109 82 297 271 379 383 267 363 390 734 391
1175 0 184 -9 274 -44 434 -167 751 -780 1351 -1529 1495 -44 9 -93 18 -110
22 -64 12 -440 12 -525 0z"/>
</g>
</svg>
