<?xml version="1.0" standalone="no"?>
<!DOCTYPE svg PUBLIC "-//W3C//DTD SVG 20010904//EN"
 "http://www.w3.org/TR/2001/REC-SVG-20010904/DTD/svg10.dtd">
<svg version="1.0" xmlns="http://www.w3.org/2000/svg"
 width="400.000000pt" height="400.000000pt" viewBox="0 0 400.000000 400.000000"
 preserveAspectRatio="xMidYMid meet">
<metadata>
Created by potrace 1.14, written by Peter Selinger 2001-2017
</metadata>
<g transform="translate(0.000000,400.000000) scale(0.100000,-0.100000)"
fill="#000000" stroke="none">
<path d="M1635 2763 c-16 -2 -39 -8 -50 -12 -11 -5 -36 -15 -55 -22 -19 -7
-42 -19 -51 -26 -10 -8 -19 -11 -21 -6 -3 4 -3 2 -1 -6 2 -7 -2 -20 -8 -27 -6
-7 -11 -29 -11 -48 0 -28 -5 -35 -23 -40 -34 -9 -79 -72 -100 -141 -26 -89
-29 -129 -11 -181 9 -26 13 -51 9 -57 -3 -5 -1 -7 4 -4 6 4 14 0 17 -9 9 -24
-20 -41 -81 -49 -29 -3 -53 -10 -53 -15 0 -4 -36 -16 -80 -26 -44 -10 -80 -24
-80 -30 0 -13 -57 -40 -66 -31 -3 2 -37 -10 -75 -29 -38 -19 -76 -34 -83 -34
-7 0 -24 -8 -37 -19 -13 -10 -33 -21 -44 -24 -14 -3 -12 -5 10 -6 l30 -2 -35
-30 c-52 -45 -58 -49 -70 -49 -5 0 -10 -7 -10 -16 0 -10 -6 -14 -15 -11 -8 4
-17 2 -20 -3 -4 -6 -1 -10 4 -10 6 0 11 -9 11 -20 0 -11 -3 -19 -7 -19 -35 6
-53 -3 -53 -25 0 -13 -5 -26 -10 -28 -6 -2 -11 -25 -12 -51 0 -36 -4 -47 -17
-48 -30 -1 21 -18 57 -18 25 -1 35 -6 39 -21 6 -21 28 -26 53 -10 16 10 15 12
-15 28 -16 9 -8 11 42 9 34 -1 60 -4 57 -8 -2 -4 1 -11 7 -15 6 -3 15 0 20 7
6 10 11 11 19 3 18 -18 59 6 62 36 2 19 10 26 32 28 26 3 28 2 17 -12 -8 -9
-20 -16 -29 -16 -8 0 -13 -3 -9 -6 7 -7 156 36 163 48 3 4 16 8 30 8 35 0 67
19 60 35 -5 14 14 25 42 25 13 0 13 -3 -4 -16 -18 -15 -18 -15 11 -9 74 15
106 27 112 41 4 10 14 13 32 9 19 -4 35 0 52 13 21 17 52 26 114 34 32 5 34
29 4 76 -15 23 -35 73 -44 110 -9 37 -22 87 -28 112 -27 105 2 329 49 381 18
20 34 17 34 -7 0 -9 9 -37 21 -64 l21 -48 41 18 c55 24 193 60 231 60 17 0 49
-5 71 -11 82 -22 103 -39 152 -117 43 -69 48 -74 54 -51 4 13 7 36 8 52 1 33
33 67 64 67 27 0 69 -42 87 -87 16 -41 5 -136 -18 -159 -19 -20 -17 -78 4
-108 8 -11 14 -30 14 -43 0 -12 5 -25 10 -28 6 -3 10 -1 10 4 0 6 15 11 34 11
19 0 46 4 60 10 18 6 34 6 50 -2 20 -8 33 -7 63 6 l38 17 -38 -5 c-29 -4 -35
-2 -25 8 24 23 116 48 228 61 25 3 74 9 110 15 82 12 147 13 152 1 2 -5 21 -5
43 -1 l40 8 -42 1 c-24 0 -43 5 -43 11 0 6 30 9 73 7 48 -1 71 -6 70 -14 -3
-15 18 -22 42 -12 19 8 19 8 -2 15 -28 8 -20 24 13 24 14 0 23 -5 21 -12 -1
-7 6 -13 16 -12 9 0 38 1 63 2 40 2 46 5 41 21 -5 21 17 36 69 46 18 3 48 24
71 48 36 37 40 46 36 80 -4 27 -9 37 -19 33 -20 -8 -17 24 4 40 15 12 14 13
-15 14 -18 0 -33 5 -33 10 0 6 14 10 30 10 23 0 30 5 30 19 0 11 -5 23 -11 26
-6 4 -8 13 -5 20 8 23 -32 49 -72 47 -20 0 -49 4 -64 9 -18 8 -42 8 -73 1 -37
-8 -45 -7 -41 3 4 10 -3 11 -32 3 -63 -17 -143 -30 -187 -30 -16 1 -52 -3 -80
-8 -27 -5 -76 -12 -108 -15 -32 -3 -70 -11 -85 -17 -29 -12 -80 -21 -207 -38
-139 -18 -205 -32 -205 -44 0 -6 -7 2 -15 18 -9 16 -15 37 -13 45 1 9 -8 37
-21 63 -12 27 -24 55 -25 63 -1 8 -7 20 -13 26 -6 6 -10 17 -9 23 2 6 1 7 -2
3 -2 -4 -18 6 -35 24 -51 50 -122 80 -232 100 -156 28 -221 32 -300 22z m655
-742 c6 -11 6 -22 1 -25 -5 -3 -11 5 -13 19 -6 30 -2 32 12 6z m-1463 -77 c-3
-3 -12 -4 -19 -1 -8 3 -5 6 6 6 11 1 17 -2 13 -5z m169 -279 c-16 -9 -32 -13
-35 -10 -8 9 21 25 44 25 16 0 14 -3 -9 -15z"/>
<path d="M2750 2055 c-8 -2 -50 -9 -92 -16 -43 -7 -78 -17 -78 -21 0 -12 33
-10 97 7 31 8 72 15 90 15 18 0 33 5 33 10 0 10 -18 11 -50 5z"/>
<path d="M2506 1879 c1 -3 -14 -13 -34 -22 -47 -21 -92 -60 -92 -79 0 -8 -42
-48 -92 -89 -51 -40 -104 -85 -118 -100 -60 -63 -141 -169 -151 -198 -12 -35
-24 -38 -56 -13 -24 19 -84 106 -114 165 -11 20 -23 37 -28 37 -12 0 -31 -56
-31 -91 0 -23 -9 -35 -41 -56 -23 -16 -53 -35 -66 -44 -13 -9 -44 -41 -69 -70
-26 -30 -56 -65 -68 -79 -12 -14 -34 -46 -49 -73 -17 -28 -33 -45 -39 -41 -6
4 -8 3 -5 -4 4 -5 0 -23 -8 -39 -8 -15 -24 -56 -37 -90 -12 -34 -25 -60 -28
-58 -9 5 -11 -31 -16 -270 -2 -126 -7 -237 -11 -245 -3 -8 -5 -20 -4 -27 3
-20 -40 -143 -50 -143 -5 0 -8 -3 -7 -7 8 -31 -60 -173 -83 -173 -15 0 -49
-39 -49 -55 0 -13 131 -15 1121 -15 1062 0 1120 1 1115 18 -14 49 -17 122 -6
122 7 0 21 11 32 25 11 14 25 22 31 18 7 -3 9 -3 5 2 -8 9 32 42 45 37 5 -1 6
2 3 7 -3 5 10 21 28 35 41 31 56 34 31 6 -10 -11 -15 -20 -11 -20 4 0 -4 -15
-18 -33 -24 -32 -33 -57 -20 -57 8 0 35 28 34 35 -1 4 2 10 6 13 4 4 4 1 0 -5
-4 -8 -2 -13 5 -13 8 0 7 -5 -2 -17 -13 -16 -12 -17 3 -4 10 7 16 16 14 20 -3
4 8 12 25 18 17 7 31 8 35 2 3 -5 14 1 24 13 29 35 24 15 -14 -49 -18 -32 -37
-68 -40 -80 -4 -13 -12 -23 -19 -23 -8 0 -8 -3 1 -12 8 -8 20 -5 49 13 86 55
328 163 348 155 6 -2 12 4 12 14 1 13 -5 17 -22 16 -13 0 -22 -3 -20 -5 7 -6
-288 -131 -297 -125 -5 3 -7 0 -6 -7 2 -6 -3 -14 -10 -16 -14 -5 46 109 60
115 4 2 8 10 8 17 0 8 9 20 21 28 19 14 20 15 2 21 -25 7 -43 3 -75 -18 -15
-10 -32 -15 -38 -11 -5 3 -10 3 -10 -2 0 -4 -12 -13 -26 -20 -24 -11 -25 -11
-13 5 32 40 51 92 33 92 -8 0 -67 -33 -74 -41 -22 -26 -149 -127 -154 -122 -3
4 -6 19 -6 34 0 15 -4 39 -9 52 -21 55 -40 211 -41 342 -1 135 -9 216 -31 300
-5 22 -14 67 -19 100 -13 82 -53 229 -68 248 -7 8 -9 23 -5 32 4 12 3 16 -4
12 -6 -4 -16 6 -23 22 -11 29 -62 112 -97 160 -10 14 -17 31 -17 38 1 7 -2 11
-6 8 -7 -5 -47 41 -51 60 -2 6 -13 21 -26 35 -13 14 -31 41 -41 60 -9 19 -37
55 -62 80 -36 36 -61 50 -120 68 -80 25 -110 37 -151 58 -24 12 -101 15 -93 3z"/>
<path d="M1540 1810 c0 -5 5 -10 11 -10 5 0 7 5 4 10 -3 6 -8 10 -11 10 -2 0
-4 -4 -4 -10z"/>
<path d="M595 1780 c3 -5 10 -10 16 -10 5 0 9 5 9 10 0 6 -7 10 -16 10 -8 0
-12 -4 -9 -10z"/>
<path d="M728 1553 c7 -3 16 -2 19 1 4 3 -2 6 -13 5 -11 0 -14 -3 -6 -6z"/>
</g>
</svg>
